<svg xmlns="http://www.w3.org/2000/svg" width="99" height="45" viewBox="0 0 99 45" fill="none">
<g clip-path="url(#clip0_30_4182)">
<path d="M4.14898 3.51271C4.23154 3.5121 4.3141 3.5115 4.39916 3.51088C4.67464 3.50939 4.95001 3.51092 5.22548 3.51246C5.42353 3.51202 5.62159 3.5114 5.81963 3.51062C6.35718 3.50904 6.8947 3.51014 7.43224 3.51181C7.93929 3.51307 8.44633 3.51256 8.95337 3.51215C9.95975 3.51142 10.9661 3.51283 11.9725 3.51536C12.9447 3.5178 13.9169 3.51841 14.8892 3.5171C15.9506 3.51567 17.012 3.51534 18.0734 3.51682C18.6341 3.51759 19.1948 3.51795 19.7555 3.51716C20.2842 3.5165 20.8129 3.51756 21.3417 3.51986C21.5341 3.52044 21.7265 3.52046 21.9189 3.51984C24.4887 3.51254 27.3773 3.85682 29.3426 5.69167C30.1472 6.56348 30.4889 7.5933 30.4581 8.77315C30.2822 10.6543 29.2615 12.0868 27.8841 13.2917C25.9369 14.8992 23.651 15.9684 21.3649 17.0024C17.3018 18.6388 17.3018 18.6388 14.3351 21.6881C14.0673 22.5374 14.3175 23.3584 14.7026 24.1349C15.3923 25.4587 16.3361 26.6254 17.2911 27.7642C17.3366 27.8186 17.3821 27.8731 17.4291 27.9292C17.8584 28.4415 18.2875 28.9498 18.7688 29.4145C18.9166 29.5622 19.0517 29.7174 19.1876 29.8762C19.6682 30.433 20.1908 30.9427 20.7487 31.4211C20.9312 31.5809 21.1084 31.7457 21.2853 31.9117C21.8302 32.4212 22.4016 32.8859 22.9932 33.3397C23.134 33.4486 23.2732 33.5591 23.412 33.6704C24.7914 34.769 26.7558 36.2609 28.5827 36.2043C28.8767 36.1613 29.0793 36.0547 29.3333 35.9071C29.6938 35.7372 30.0673 35.7707 30.4405 35.8862C30.8659 36.0737 31.2388 36.3392 31.446 36.7642C31.5263 37.2248 31.5119 37.627 31.3295 38.059C30.1171 39.3312 28.0745 40.8124 26.281 40.8768C24.967 40.8412 24.0965 40.0979 23.1667 39.238C22.9966 39.0811 22.8233 38.9304 22.6469 38.7807C22.1795 38.3736 21.75 37.926 21.315 37.485C21.0343 37.2008 20.7512 36.919 20.4676 36.6378C19.9266 36.1005 19.3914 35.5661 18.9015 34.9811C18.8246 34.8924 18.7476 34.8037 18.6704 34.7151C16.1364 31.798 13.8972 28.4352 12.375 24.8774C12.347 26.2503 12.319 27.6232 12.2902 29.0377C12.6678 29.1638 12.6678 29.1638 13.0531 29.2925C13.2358 29.4414 13.2358 29.4414 13.3497 29.5949C13.3891 29.6458 13.4284 29.6967 13.4689 29.7492C13.7012 30.094 13.6823 30.4155 13.6464 30.8208C13.4968 31.3201 13.296 31.5469 12.8835 31.8396C12.6433 31.9198 12.4939 31.9357 12.2449 31.937C12.1661 31.9376 12.0874 31.9382 12.0062 31.9389C11.8768 31.9392 11.8768 31.9392 11.7448 31.9396C11.6538 31.9401 11.5628 31.9407 11.4691 31.9413C11.1675 31.9429 10.8658 31.9439 10.5642 31.9448C10.4098 31.9453 10.4098 31.9453 10.2523 31.9458C9.70765 31.9476 9.16298 31.9488 8.61832 31.9496C8.05539 31.9505 7.49249 31.9535 6.92957 31.9568C6.49699 31.959 6.06443 31.9598 5.63185 31.9601C5.42432 31.9605 5.21679 31.9615 5.00926 31.963C4.7189 31.9651 4.4286 31.965 4.13823 31.9644C4.00961 31.9661 4.00961 31.9661 3.87839 31.9677C3.38887 31.9641 3.09781 31.9183 2.71231 31.5849C2.31924 31.1486 2.24483 30.7912 2.24712 30.2151C2.31748 29.8013 2.5715 29.5581 2.88183 29.2925C3.13611 29.1226 3.13611 29.1226 3.55991 29.0377C3.58788 21.5847 3.61585 14.1317 3.64467 6.45283C3.44888 6.42482 3.25308 6.3968 3.05135 6.36793C2.66923 6.11029 2.43478 5.87354 2.28851 5.43397C2.23497 4.9904 2.23299 4.62514 2.41565 4.21345C2.93665 3.66545 3.40384 3.50287 4.14898 3.51271Z" fill="#03123C"/>
<path d="M39.7257 17.677C39.9387 17.864 40.1438 18.0559 40.3458 18.2547C40.3946 18.3025 40.4435 18.3504 40.4938 18.3996C41.2907 19.2518 41.4907 20.2213 41.4702 21.3441C41.422 22.5076 40.7682 23.4837 39.9432 24.2671C39.4636 24.6727 38.9408 24.9917 38.3963 25.3019C38.3044 25.3558 38.2125 25.4098 38.1179 25.4654C36.8889 26.158 35.552 26.6574 34.2142 27.0958C34.0354 27.1545 33.8575 27.2158 33.6799 27.2779C32.3933 27.7261 31.066 28.0401 29.7402 28.3479C29.6624 28.3661 29.5846 28.3844 29.5044 28.4033C29.3953 28.428 29.3953 28.428 29.2839 28.4533C29.2204 28.4679 29.1569 28.4824 29.0915 28.4974C28.8847 28.5313 28.6886 28.5335 28.4794 28.5283C28.5551 29.4099 28.6909 30.1808 29.0727 30.9906C29.1276 31.1074 29.1276 31.1074 29.1836 31.2267C29.5488 31.9148 30.0961 32.3323 30.8262 32.5932C32.5783 33.0907 34.3124 32.6381 35.8588 31.7806C37.1111 31.0143 37.9951 30.0962 38.6506 28.783C38.703 28.6902 38.7555 28.5974 38.8095 28.5018C38.9609 28.0047 38.9856 27.5136 38.9049 27C38.7531 26.7726 38.6414 26.7084 38.3963 26.5755C38.3963 26.3844 38.3963 26.3844 38.4811 26.1509C39.24 25.5872 40.3762 25.6507 41.2782 25.7264C42.2294 25.9129 42.911 26.2964 43.4819 27.0849C43.7901 27.6262 43.8308 28.2192 43.6866 28.8202C43.0373 30.6818 41.1086 32.0565 39.4135 32.8827C36.2005 34.3906 32.3378 34.7231 28.9613 33.5392C27.7481 33.0788 26.6017 32.4961 25.5975 31.6698C25.5538 31.634 25.5101 31.5981 25.4651 31.5612C23.7615 30.1427 22.5838 28.1542 22.324 25.9314C22.2931 25.5791 22.2887 25.231 22.2919 24.8774C22.292 24.7732 22.2921 24.669 22.2922 24.5616C22.3704 22.1976 23.536 20.1477 25.2095 18.5346C28.9852 15.1651 35.6312 14.3217 39.7257 17.677Z" fill="#04133D"/>
<path d="M45.8239 13.2863C45.8796 13.2857 45.9354 13.2851 45.9928 13.2844C46.1768 13.283 46.3607 13.2839 46.5447 13.2851C46.6733 13.2849 46.8019 13.2845 46.9305 13.2841C47.2003 13.2836 47.47 13.2843 47.7397 13.2859C48.0835 13.2878 48.4271 13.2867 48.7708 13.2847C49.0366 13.2835 49.3025 13.2839 49.5684 13.2847C49.6949 13.285 49.8215 13.2847 49.9481 13.2839C50.9889 13.2788 51.8626 13.4326 52.6361 14.1793C53.0578 14.667 53.2091 15.0652 53.2295 15.7076C53.2583 15.6654 53.2872 15.6233 53.3169 15.5799C54.0415 14.5625 55.0103 13.948 56.1961 13.5849C56.2747 13.5594 56.3534 13.5339 56.4345 13.5076C58.1944 13.0141 60.2626 13.3095 61.8724 14.1391C62.9815 14.8023 63.6747 15.682 64.0788 16.8962C64.154 17.2096 64.1748 17.5009 64.1764 17.8229C64.1771 17.9235 64.1778 18.024 64.1785 18.1277C64.1789 18.2373 64.1792 18.3469 64.1796 18.4598C64.1803 18.577 64.181 18.6942 64.1817 18.8114C64.1833 19.0633 64.1845 19.3153 64.1856 19.5672C64.1873 19.9657 64.1897 20.3643 64.1921 20.7629C64.1972 21.609 64.2016 22.4552 64.2059 23.3013C64.2106 24.2145 64.2154 25.1278 64.221 26.041C64.2234 26.437 64.2254 26.833 64.2271 27.229C64.2282 27.4756 64.2297 27.7222 64.2312 27.9688C64.2322 28.1372 64.2328 28.3056 64.2333 28.4741C64.234 28.5749 64.2347 28.6757 64.2355 28.7796C64.2359 28.8668 64.2363 28.9541 64.2368 29.044C64.2488 29.3023 64.2856 29.5479 64.3331 29.8019C64.4189 29.8144 64.4189 29.8144 64.5065 29.8271C65.1207 29.9302 65.1207 29.9302 65.4032 30.1256C65.5496 30.359 65.5804 30.4657 65.5197 30.7359C65.2714 31.013 65.0737 31.098 64.7126 31.118C64.5564 31.1198 64.4002 31.1197 64.244 31.1181C64.1157 31.1188 64.1157 31.1188 63.9849 31.1195C63.7026 31.1205 63.4204 31.1191 63.1381 31.1176C62.9419 31.1176 62.7457 31.1177 62.5495 31.118C62.1384 31.1181 61.7274 31.117 61.3163 31.1151C60.7891 31.1127 60.262 31.1129 59.7347 31.114C59.3297 31.1146 58.9246 31.1139 58.5195 31.1129C58.3251 31.1125 58.1307 31.1125 57.9362 31.1128C57.6647 31.113 57.3933 31.1116 57.1218 31.1098C57.0412 31.1102 56.9607 31.1105 56.8777 31.1109C56.3389 31.1048 56.3389 31.1048 56.0614 30.9646C55.9418 30.8208 55.9418 30.8208 55.8994 30.5236C55.9418 30.2264 55.9418 30.2264 56.0636 30.0778C56.3251 29.9501 56.5893 29.8799 56.8722 29.8135C57.0663 29.7274 57.0663 29.7274 57.1378 29.4925C57.2174 29.1916 57.2347 28.9391 57.2353 28.6281C57.2356 28.5719 57.2359 28.5157 57.2363 28.4579C57.2371 28.2707 57.2368 28.0836 57.2365 27.8965C57.2368 27.7619 57.2373 27.6273 57.2378 27.4926C57.2389 27.1278 57.239 26.7629 57.2388 26.398C57.2387 26.0931 57.2391 25.7882 57.2395 25.4833C57.2404 24.7639 57.2405 24.0445 57.24 23.3251C57.2394 22.5835 57.2405 21.842 57.2423 21.1004C57.2438 20.4631 57.2443 19.8258 57.244 19.1885C57.2439 18.8081 57.2441 18.4278 57.2453 18.0474C57.2463 17.6897 57.2462 17.332 57.2451 16.9743C57.2449 16.8432 57.2451 16.7122 57.2458 16.5811C57.2467 16.4017 57.246 16.2224 57.2449 16.0431C57.2449 15.9428 57.2449 15.8426 57.245 15.7394C57.2002 15.3356 57.0932 14.9846 56.7894 14.6993C56.3676 14.4617 55.9408 14.4548 55.4816 14.5709C54.5757 14.8918 53.9789 15.5297 53.5685 16.3868C53.2713 17.0131 53.2775 17.5996 53.28 18.2835C53.2795 18.406 53.2789 18.5285 53.2782 18.651C53.2767 18.982 53.2768 19.313 53.2773 19.644C53.2775 19.9207 53.277 20.1973 53.2765 20.474C53.2753 21.1264 53.2754 21.7788 53.2764 22.4311C53.2774 23.1041 53.2762 23.777 53.2739 24.4499C53.272 25.0283 53.2715 25.6066 53.272 26.185C53.2723 26.5302 53.2721 26.8754 53.2706 27.2206C53.2693 27.5448 53.2696 27.869 53.2712 28.1932C53.2715 28.3122 53.2713 28.4311 53.2704 28.5501C53.2693 28.7124 53.2704 28.8748 53.2717 29.0371C53.2718 29.1279 53.2718 29.2188 53.2718 29.3124C53.3247 29.6049 53.4242 29.7039 53.6533 29.8868C53.8258 29.9558 53.8258 29.9558 54.0029 29.9823C54.3313 30.0566 54.3313 30.0566 54.5009 30.2264C54.5326 30.5183 54.5326 30.5183 54.5009 30.8208C54.2698 31.0459 54.104 31.1074 53.7855 31.1084C53.7106 31.1092 53.6357 31.1101 53.5586 31.1109C53.4771 31.1106 53.3957 31.1102 53.3117 31.1098C53.2254 31.1104 53.1391 31.111 53.0502 31.1116C52.7647 31.1131 52.4793 31.1128 52.1938 31.1123C51.9956 31.1127 51.7973 31.1131 51.5991 31.1136C51.1835 31.1144 50.768 31.1142 50.3525 31.1134C49.8194 31.1124 49.2865 31.1141 48.7535 31.1166C48.3441 31.1181 47.9347 31.1181 47.5253 31.1176C47.3288 31.1176 47.1322 31.1181 46.9357 31.1192C46.6611 31.1204 46.3866 31.1195 46.1121 31.1181C45.9899 31.1193 45.9899 31.1193 45.8652 31.1206C45.3158 31.1144 45.3158 31.1144 45.042 30.9163C44.8914 30.6881 44.8694 30.5797 44.923 30.3113C45.0695 30.088 45.1869 29.9893 45.4484 29.9279C45.5828 29.9045 45.7179 29.8846 45.8533 29.8686C46.042 29.8169 46.042 29.8169 46.119 29.6225C46.2083 29.332 46.2157 29.0886 46.2159 28.7844C46.2161 28.7258 46.2164 28.6671 46.2167 28.6067C46.2174 28.4107 46.2168 28.2147 46.2163 28.0187C46.2165 27.878 46.2168 27.7372 46.2172 27.5965C46.218 27.2146 46.2177 26.8327 46.2171 26.4508C46.2167 26.0511 46.2171 25.6514 46.2174 25.2517C46.2177 24.5805 46.2173 23.9093 46.2165 23.2381C46.2155 22.4621 46.2158 21.6862 46.2168 20.9102C46.2175 20.2439 46.2176 19.5776 46.2172 18.9114C46.2169 18.5134 46.2169 18.1155 46.2175 17.7176C46.218 17.3435 46.2176 16.9694 46.2166 16.5953C46.2164 16.458 46.2165 16.3208 46.2168 16.1835C46.2173 15.996 46.2167 15.8087 46.2159 15.6212C46.2158 15.4639 46.2158 15.4639 46.2157 15.3035C46.1946 15.032 46.1509 14.844 46.0248 14.6038C45.8526 14.5286 45.8526 14.5286 45.654 14.5136C45.3885 14.4673 45.27 14.4396 45.0448 14.2801C44.893 14.0487 44.8687 13.9414 44.923 13.6698C45.1917 13.3162 45.3902 13.2874 45.8239 13.2863Z" fill="#04133C"/>
<path d="M80.2426 4.4657C80.3287 4.46483 80.3287 4.46483 80.4165 4.46394C80.6064 4.46238 80.7963 4.46271 80.9863 4.4632C81.1188 4.46281 81.2513 4.46236 81.3839 4.46185C81.6621 4.46109 81.9403 4.4613 82.2186 4.46214C82.5732 4.46311 82.9278 4.46141 83.2824 4.45892C83.5565 4.45735 83.8305 4.45739 84.1046 4.45787C84.2352 4.45788 84.3658 4.45738 84.4964 4.45632C85.4611 4.4496 86.2688 4.5244 87.0013 5.2111C87.0693 5.27304 87.1374 5.33499 87.2075 5.39882C87.6667 5.92033 87.6787 6.38623 87.6743 7.05103C87.6747 7.14575 87.6751 7.24048 87.6755 7.33808C87.6765 7.65565 87.6757 7.97318 87.6749 8.29075C87.6752 8.51836 87.6757 8.74597 87.6763 8.97359C87.6773 9.4638 87.6775 9.954 87.6771 10.4442C87.6765 11.1535 87.6776 11.8628 87.6791 12.5721C87.6815 13.7237 87.683 14.8753 87.6837 16.0269C87.6838 16.1303 87.6838 16.1303 87.6838 16.2357C87.6842 16.7947 87.6845 17.3537 87.6848 17.9128C87.685 18.4014 87.6853 18.8901 87.6856 19.3788C87.6856 19.4476 87.6857 19.5164 87.6857 19.5873C87.6865 20.7346 87.6882 21.8819 87.6906 23.0293C87.6921 23.7368 87.6926 24.4444 87.692 25.1519C87.6917 25.6366 87.6922 26.1214 87.6935 26.6061C87.6942 26.8858 87.6943 27.1654 87.6936 27.4451C87.6929 27.7483 87.6937 28.0515 87.6949 28.3547C87.6944 28.443 87.6938 28.5314 87.6932 28.6224C87.6969 29.0954 87.7087 29.5288 88.0661 29.8868C88.2593 29.9319 88.4536 29.9686 88.6485 30.0059C88.8289 30.0566 88.8289 30.0566 88.9984 30.2264C89.0302 30.5183 89.0302 30.5183 88.9984 30.8208C88.7674 31.0459 88.6015 31.1074 88.283 31.1084C88.1707 31.1097 88.1707 31.1097 88.0562 31.1109C87.9747 31.1106 87.8932 31.1102 87.8093 31.1098C87.6798 31.1107 87.6798 31.1107 87.5478 31.1116C87.2623 31.1131 86.9768 31.1128 86.6914 31.1123C86.4931 31.1127 86.2949 31.1131 86.0966 31.1136C85.6811 31.1144 85.2656 31.1142 84.85 31.1134C84.317 31.1124 83.784 31.1141 83.251 31.1166C82.8416 31.1181 82.4323 31.1181 82.0229 31.1176C81.8263 31.1176 81.6298 31.1181 81.4332 31.1192C81.1587 31.1204 80.8842 31.1195 80.6096 31.1181C80.5282 31.1189 80.4467 31.1197 80.3628 31.1206C79.8134 31.1144 79.8134 31.1144 79.5396 30.9163C79.389 30.6881 79.3669 30.5797 79.4205 30.3113C79.5671 30.0878 79.683 29.9885 79.946 29.9309C80.0804 29.909 80.2154 29.8908 80.3509 29.8769C80.543 29.8154 80.543 29.8154 80.6165 29.6011C80.7189 29.1819 80.7156 28.7842 80.714 28.3541C80.7143 28.2593 80.7147 28.1645 80.715 28.0668C80.7159 27.7491 80.7155 27.4313 80.7152 27.1136C80.7156 26.8858 80.716 26.6581 80.7165 26.4303C80.7176 25.8759 80.7177 25.3215 80.7175 24.767C80.7174 24.3164 80.7175 23.8659 80.7179 23.4153C80.718 23.3511 80.718 23.287 80.7181 23.2209C80.7182 23.0906 80.7183 22.9603 80.7184 22.83C80.7193 21.6084 80.7191 20.3868 80.7186 19.1653C80.7181 18.0474 80.7191 16.9296 80.7207 15.8118C80.7224 14.664 80.7231 13.5162 80.7227 12.3684C80.7226 11.724 80.7228 11.0796 80.724 10.4352C80.725 9.88681 80.7251 9.33839 80.7241 8.78996C80.7236 8.51012 80.7236 8.23031 80.7245 7.95047C80.7254 7.64724 80.7247 7.34405 80.7236 7.04081C80.7243 6.95221 80.7249 6.8636 80.7255 6.77231C80.7252 6.18699 80.7252 6.18699 80.4376 5.68869C80.256 5.61136 80.256 5.61136 80.0562 5.59317C79.7586 5.55242 79.6063 5.50877 79.4205 5.26416C79.3883 5.00606 79.3673 4.83489 79.5141 4.61359C79.7543 4.44379 79.9509 4.46699 80.2426 4.4657Z" fill="#03123C"/>
<path d="M68.5026 13.3055C68.6111 13.3044 68.7195 13.3034 68.8312 13.3022C68.95 13.302 69.0688 13.3018 69.1875 13.3017C69.31 13.3011 69.4324 13.3006 69.5548 13.3C69.812 13.2989 70.0692 13.2986 70.3265 13.2987C70.6531 13.2987 70.9797 13.2964 71.3064 13.2935C71.5598 13.2916 71.8131 13.2913 72.0665 13.2914C72.1867 13.2912 72.3069 13.2904 72.4271 13.2891C73.3845 13.2795 74.4424 13.355 75.1951 14.0212C75.7876 14.6186 75.9251 15.2084 75.9272 16.0345C75.9259 16.1654 75.9246 16.2964 75.9232 16.4274C75.9237 16.5673 75.9243 16.7073 75.9252 16.8473C75.9268 17.2251 75.9254 17.6029 75.9235 17.9808C75.9221 18.3769 75.9237 18.7731 75.925 19.1693C75.927 19.919 75.9266 20.6687 75.9252 21.4185C75.9228 22.7621 75.9245 24.1058 75.9271 25.4495C75.9279 25.9209 75.9277 26.3922 75.9265 26.8636C75.926 27.1565 75.9261 27.4494 75.9263 27.7422C75.9263 27.878 75.9259 28.0138 75.9253 28.1496C75.9244 28.3349 75.9246 28.5203 75.925 28.7056C75.9248 28.8093 75.9246 28.913 75.9244 29.0198C75.9524 29.3871 76.0231 29.6252 76.2842 29.8868C76.4649 29.938 76.4649 29.938 76.6656 29.9717C77.0282 30.0377 77.0282 30.0377 77.2166 30.2264C77.2539 30.5132 77.2566 30.6738 77.0982 30.9195C76.758 31.16 76.4344 31.1229 76.0275 31.1194C75.9412 31.12 75.8548 31.1206 75.7659 31.1212C75.4804 31.1227 75.195 31.1217 74.9095 31.1206C74.7113 31.1208 74.513 31.1211 74.3148 31.1216C73.8993 31.1221 73.4837 31.1213 73.0682 31.1198C72.5352 31.1178 72.0022 31.1189 71.4692 31.121C71.0598 31.1222 70.6504 31.1218 70.2411 31.1209C70.0445 31.1207 69.848 31.121 69.6514 31.1218C69.3768 31.1226 69.1024 31.1213 68.8278 31.1194C68.7463 31.1201 68.6649 31.1208 68.5809 31.1215C68.0326 31.1145 68.0326 31.1145 67.7577 30.9192C67.5952 30.6689 67.589 30.5188 67.6387 30.2264C67.8761 29.9472 68.226 29.8908 68.5691 29.8052C68.7559 29.73 68.7559 29.73 68.8347 29.5359C68.9238 29.248 68.9314 29.0075 68.9316 28.706C68.9319 28.648 68.9321 28.59 68.9324 28.5303C68.9331 28.3367 68.9326 28.143 68.932 27.9494C68.9322 27.8103 68.9325 27.6713 68.9329 27.5322C68.9337 27.1549 68.9334 26.7775 68.9329 26.4002C68.9324 26.0053 68.9328 25.6103 68.9331 25.2154C68.9334 24.5522 68.933 23.8889 68.9322 23.2257C68.9313 22.459 68.9316 21.6923 68.9325 20.9256C68.9333 20.2673 68.9334 19.6089 68.9329 18.9506C68.9327 18.5574 68.9326 18.1642 68.9332 17.7711C68.9337 17.4014 68.9333 17.0318 68.9324 16.6622C68.9321 16.5265 68.9322 16.3909 68.9326 16.2552C68.933 16.07 68.9325 15.8849 68.9316 15.6997C68.9315 15.5961 68.9315 15.4925 68.9314 15.3857C68.9103 15.1154 68.8652 14.9283 68.7406 14.6887C68.5695 14.5956 68.5695 14.5956 68.3697 14.556C67.8227 14.3961 67.8227 14.3961 67.6387 14.0943C67.644 13.7866 67.644 13.7866 67.7234 13.5C68.0223 13.3004 68.1485 13.3079 68.5026 13.3055Z" fill="#03123C"/>
<path d="M13.8167 5.75857C13.9156 5.75748 14.0144 5.75639 14.1162 5.75527C14.2222 5.75464 14.3281 5.75401 14.4373 5.75337C14.6032 5.75234 14.6032 5.75234 14.7725 5.75129C15.0068 5.75002 15.2411 5.74918 15.4755 5.74854C15.7129 5.74779 15.9504 5.74603 16.1878 5.74331C19.8228 5.70265 19.8228 5.70265 20.937 6.68899C21.7111 7.51001 21.8235 8.43546 21.8074 9.52172C21.7831 10.138 21.6297 10.7073 21.4442 11.2925C21.4198 11.3698 21.3953 11.4472 21.3701 11.527C20.4089 14.1962 17.7974 15.8669 15.5505 17.3508C14.3501 18.146 13.2326 18.9381 12.4861 20.1999C12.4494 20.2585 12.4127 20.317 12.3749 20.3774C12.3469 20.3774 12.3189 20.3774 12.2901 20.3774C12.2782 18.547 12.2693 16.7167 12.2638 14.8863C12.2611 14.0365 12.2576 13.1867 12.2518 12.3368C12.2467 11.5961 12.2434 10.8555 12.2423 10.1148C12.2416 9.72257 12.24 9.33037 12.2363 8.93813C12.2329 8.56897 12.2318 8.19988 12.2326 7.83071C12.2325 7.6952 12.2314 7.55969 12.2295 7.42419C12.227 7.2391 12.2276 7.05426 12.229 6.86916C12.2285 6.76561 12.228 6.66207 12.2275 6.55539C12.3166 6.16756 12.4726 6.07875 12.7987 5.8585C13.1371 5.76793 13.4675 5.76195 13.8167 5.75857Z" fill="#F16136"/>
<path d="M36.701 17.4906C36.8731 17.6213 36.9869 17.7457 37.1248 17.9151C37.1668 17.9571 37.1668 17.9571 37.2096 18C37.3957 19.1717 36.7656 20.2326 36.1153 21.1591C35.0836 22.5403 33.9 23.8085 32.5478 24.8773C32.4651 24.9447 32.3824 25.012 32.2971 25.0813C31.204 25.9532 29.8011 27.0237 28.3945 27.2547C28.4002 25.6678 28.8651 24.033 29.4964 22.5849C29.5224 22.525 29.5485 22.465 29.5753 22.4033C30.4261 20.4689 31.7464 18.3512 33.7596 17.4882C34.6892 17.1532 35.7843 17.0394 36.701 17.4906Z" fill="#F16136"/>
<path d="M71.707 2.46225C71.9774 2.86867 72.0796 3.33475 72.2208 3.79951C72.2517 3.89867 72.2826 3.99783 72.3144 4.1C72.3439 4.19653 72.3735 4.29307 72.4039 4.39253C72.4308 4.48028 72.4577 4.56803 72.4854 4.65844C72.5597 4.94411 72.6028 5.22614 72.6393 5.51885C72.7223 5.5004 72.8052 5.48196 72.8907 5.46295C73.1989 5.39462 73.5073 5.32729 73.8157 5.26026C73.9492 5.23112 74.0825 5.20172 74.2158 5.17204C74.4075 5.12939 74.5995 5.08772 74.7914 5.04623C74.8509 5.0328 74.9103 5.01936 74.9715 5.00551C75.2633 4.94345 75.4921 4.89965 75.7755 5.00942C75.4874 5.34901 75.1918 5.68014 74.8845 6.00242C74.8316 6.05812 74.7787 6.11382 74.7243 6.17121C74.6175 6.28343 74.5102 6.39517 74.4024 6.5064C74.3523 6.55909 74.3023 6.61179 74.2508 6.66608C74.1832 6.73629 74.1832 6.73629 74.1143 6.80792C73.9743 6.98985 73.9025 7.17126 73.826 7.38678C73.8823 7.44636 73.8823 7.44636 73.9397 7.50715C75.316 8.96491 75.316 8.96491 75.8602 9.59433C75.5263 9.72043 75.2626 9.63962 74.9222 9.5605C74.865 9.54738 74.8077 9.53427 74.7488 9.52077C74.5664 9.47879 74.3842 9.43573 74.2021 9.39267C74.0792 9.3643 73.9563 9.336 73.8334 9.30777C72.948 9.10304 72.948 9.10304 72.6393 8.99999C72.6271 9.07253 72.6271 9.07253 72.6145 9.14654C72.5004 9.77009 72.3178 10.3619 72.1202 10.9634C72.0886 11.0608 72.057 11.1582 72.0245 11.2586C71.9473 11.4964 71.8697 11.7341 71.7917 11.9717C71.7358 11.9717 71.6798 11.9717 71.6222 11.9717C71.3813 11.255 71.1405 10.5381 70.9123 9.8172C70.8855 9.73249 70.8586 9.64778 70.8309 9.5605C70.7746 9.33961 70.7746 9.33961 70.7746 8.99999C70.7144 9.01453 70.6542 9.02907 70.5922 9.04406C70.3157 9.1108 70.0393 9.17745 69.7628 9.24409C69.6681 9.26696 69.5734 9.28984 69.4759 9.31341C69.2893 9.35835 69.1026 9.403 68.9159 9.44732C68.753 9.48617 68.5904 9.52589 68.4281 9.56688C68.3615 9.58316 68.2948 9.59944 68.2262 9.61622C68.1693 9.63057 68.1124 9.64492 68.0538 9.6597C67.8671 9.68234 67.7321 9.64998 67.5537 9.59433C67.5958 9.55317 67.6378 9.51202 67.6812 9.46962C68.0242 9.13055 68.3534 8.78576 68.6659 8.41825C68.7855 8.28125 68.9091 8.14781 69.0347 8.01627C69.1054 7.94163 69.1761 7.86699 69.2489 7.79008C69.3153 7.72135 69.3818 7.65261 69.4502 7.5818C69.6052 7.40276 69.6052 7.40276 69.586 7.21166C69.4836 7.00814 69.3622 6.88441 69.1959 6.72876C68.9097 6.45271 68.6442 6.1683 68.3851 5.86677C68.2106 5.66407 68.0334 5.46402 67.8557 5.26414C67.7981 5.19934 67.7405 5.13455 67.6812 5.06779C67.6391 5.02051 67.5971 4.97323 67.5537 4.92451C67.8324 4.78494 68.1153 4.91209 68.4073 4.9799C68.4748 4.9951 68.5423 5.01029 68.6118 5.02595C68.8278 5.07473 69.0437 5.12432 69.2595 5.17392C69.4057 5.20709 69.552 5.2402 69.6982 5.27326C70.0571 5.35451 70.4159 5.43649 70.7746 5.51885C70.7845 5.46544 70.7944 5.41203 70.8046 5.357C70.8937 4.89168 71.0005 4.44145 71.1454 3.99055C71.1728 3.90387 71.1728 3.90387 71.2008 3.81543C71.3484 3.35562 71.5163 2.90605 71.707 2.46225Z" fill="#C42126"/>
</g>
<defs>
<clipPath id="clip0_30_4182">
<rect width="99" height="45" fill="white"/>
</clipPath>
</defs>
</svg>